<!-- Generator: Adobe Illustrator 19.1.0, SVG Export Plug-In  -->
<svg version="1.1"
	 xmlns="http://www.w3.org/2000/svg" xmlns:xlink="http://www.w3.org/1999/xlink" xmlns:a="http://ns.adobe.com/AdobeSVGViewerExtensions/3.0/"
	 x="0px" y="0px" width="349.989px" height="450.023px" viewBox="0 0 349.989 450.023"
	 style="overflow:scroll;enable-background:new 0 0 349.989 450.023;" xml:space="preserve">
<style type="text/css">
	.st0{fill:#FFFFFF;}
</style>
<defs>
</defs>
<g>
	<path class="st0" d="M69.81,31.188c-17.581,0-33.905-0.006-50.228,0.002C5.877,31.197,0.003,36.999,0.003,50.548
		c-0.004,126.654-0.003,253.308-0.001,379.962c0,13.752,5.71,19.51,19.359,19.511c103.656,0.004,207.313,0.004,310.969,0.001
		c14.026,0,19.654-5.649,19.655-19.721c0.003-85.658,0.002-171.316,0.002-256.974c0-41.163,0.008-82.325-0.006-123.488
		c-0.004-12.568-6.115-18.606-18.788-18.647c-3.166-0.01-6.333-0.002-9.499-0.002c-12.449,0-24.898,0-38.23,0
		c2.896,6.39,5.778,11.972,7.956,17.817c1.548,4.155,3.896,5.345,8.188,5.146c8.079-0.374,16.187-0.108,24.153-0.108
		c0,123.977,0,247.193,0,370.408c-99.636,0-198.858,0-298.151,0c0-123.598,0-246.816,0-370.408c10.179,0,19.993,0.075,29.803-0.076
		c1.58-0.024,4.018-0.615,4.574-1.703C63.363,45.658,66.31,38.833,69.81,31.188z M176.537,72.62c21.316,0,42.631,0.001,63.947,0
		c14.821,0,29.642,0.032,44.463-0.023c5.036-0.019,5.763-1.135,3.811-5.612c-1.795-4.115-3.706-8.18-5.611-12.246
		c-3.949-8.43-7.789-16.915-11.949-25.24c-2.234-4.47-5.833-6.732-11.282-6.585c-12.148,0.328-24.31,0.116-36.467,0.097
		c-9.469-0.015-13.088-3.377-14.043-12.969c-0.649-6.519-4.18-9.933-10.767-9.973c-14.321-0.087-28.643-0.098-42.964,0.008
		c-6.379,0.048-10.089,3.818-10.554,10.225c-0.656,9.02-4.582,12.684-13.726,12.706c-11.657,0.028-23.362,0.66-34.955-0.202
		c-9.047-0.672-13.534,3.555-16.809,10.913c-4.734,10.636-9.681,21.177-14.504,31.773c-2.92,6.416-2.47,7.122,4.499,7.124
		C105.263,72.624,140.9,72.619,176.537,72.62z M63.6,334.401c0,22.007,0,43.733,0,65.666c22.064,0,43.81,0,65.797,0
		c0-22.029,0-43.75,0-65.666C107.333,334.401,85.597,334.401,63.6,334.401z M63.549,178.193c22.094,0,43.84,0,65.78,0
		c0-11.492,0-22.66,0-34.539c-3.384,3.329-7.577,5.654-8.718,9.014c-1.583,4.662-0.874,10.103-1.166,15.561
		c-15.321,0-30.54,0-45.909,0c0-15.419,0-30.491,0-45.373c16.056,0,31.795,0,48.381,0c2.341-2.597,5.323-5.904,8.305-9.212
		c-0.291-0.368-0.581-0.735-0.872-1.103c-21.845,0-43.69,0-65.802,0C63.549,134.424,63.549,156.025,63.549,178.193z
		 M129.476,255.474c-10.762,4.965-10.464,14.219-9.576,23.704c-15.862,0-31.076,0-46.322,0c0-15.447,0-30.517,0-45.317
		c15.947,0,31.544,0,48.24,0c2.268-2.474,5.361-5.849,8.454-9.224c-0.32-0.375-0.64-0.75-0.959-1.125c-21.844,0-43.689,0-65.633,0
		c0,22.055,0,43.758,0,65.548c22.111,0,43.834,0,65.797,0C129.476,277.635,129.476,266.582,129.476,255.474z M289.705,133.264
		c-40.551,0-80.688,0-120.663,0c0,3.343,0,6.234,0,9.16c40.455,0,80.469,0,120.663,0
		C289.705,139.276,289.705,136.485,289.705,133.264z M168.834,164.778c40.563,0,80.7,0,120.658,0c0-3.354,0-6.251,0-9.129
		c-40.406,0-80.418,0-120.658,0C168.834,158.821,168.834,161.615,168.834,164.778z M289.685,244.191c-40.504,0-80.652,0-120.666,0
		c0,3.321,0,6.218,0,9.202c40.433,0,80.45,0,120.666,0C289.685,250.267,289.685,247.48,289.685,244.191z M289.712,266.503
		c-40.461,0-80.492,0-120.68,0c0,3.329,0,6.344,0,9.304c40.457,0,80.483,0,120.68,0C289.712,272.65,289.712,269.857,289.712,266.503
		z M289.607,377.474c-40.306,0-80.334,0-120.606,0c0,3.291,0,6.308,0,9.342c40.427,0,80.453,0,120.606,0
		C289.607,383.564,289.607,380.656,289.607,377.474z M168.87,364.183c40.442,0,80.615,0,120.772,0c0-3.265,0-6.045,0-8.987
		c-40.423,0-80.601,0-120.772,0C168.87,358.442,168.87,361.232,168.87,364.183z M104.44,272.206
		c16.191-16.194,31.946-31.965,47.722-47.715c2.451-2.447,3.41-5.181,0.779-7.844c-2.685-2.718-5.438-1.594-7.841,0.811
		c-7.88,7.887-15.772,15.762-23.64,23.662c-5.602,5.625-11.172,11.283-17.187,17.361c-5.383-5.533-10.328-10.688-15.361-15.756
		c-2.291-2.307-5.033-2.896-7.496-0.461c-2.485,2.456-1.857,5.116,0.477,7.448C89.299,257.113,96.716,264.501,104.44,272.206z
		 M104.473,161.311c16.209-16.246,32.194-32.245,48.145-48.278c2.349-2.361,2.661-5.113,0.2-7.483
		c-2.306-2.22-4.863-1.676-7.119,0.411c-0.854,0.79-1.668,1.625-2.492,2.449c-11.65,11.647-23.294,23.3-34.953,34.937
		c-1.239,1.237-2.566,2.387-4.252,3.946c-5.244-5.399-10.17-10.578-15.224-15.628c-2.308-2.306-5.482-2.966-7.315-0.142
		c-1.048,1.614-0.904,5.505,0.344,6.858C89.008,146.19,96.697,153.548,104.473,161.311z"/>
	<path class="st0" d="M69.81,31.188c-3.5,7.645-6.447,14.47-9.824,21.075c-0.556,1.088-2.994,1.678-4.574,1.703
		c-9.81,0.152-19.623,0.076-29.803,0.076c0,123.592,0,246.81,0,370.408c99.293,0,198.515,0,298.151,0c0-123.215,0-246.43,0-370.408
		c-7.966,0-16.074-0.266-24.153,0.108c-4.292,0.199-6.639-0.991-8.188-5.146c-2.178-5.844-5.06-11.427-7.956-17.817
		c13.331,0,25.78,0,38.23,0c3.166,0,6.333-0.009,9.499,0.002c12.673,0.041,18.784,6.079,18.788,18.647
		c0.014,41.163,0.006,82.325,0.006,123.488c0,85.658,0.001,171.316-0.002,256.974c0,14.072-5.629,19.721-19.655,19.721
		c-103.656,0.003-207.313,0.003-310.969-0.001c-13.649-0.001-19.359-5.758-19.359-19.511C-0.001,303.855-0.001,177.201,0.003,50.548
		c0-13.548,5.874-19.35,19.579-19.357C35.905,31.182,52.229,31.188,69.81,31.188z"/>
	<path class="st0" d="M176.537,72.62c-35.637-0.001-71.274,0.004-106.911-0.005c-6.97-0.002-7.42-0.708-4.499-7.124
		c4.823-10.596,9.769-21.137,14.504-31.773c3.275-7.358,7.762-11.585,16.809-10.913c11.593,0.861,23.298,0.23,34.955,0.202
		c9.145-0.022,13.071-3.686,13.726-12.706c0.466-6.407,4.175-10.177,10.554-10.225c14.321-0.107,28.643-0.096,42.964-0.008
		c6.586,0.04,10.118,3.453,10.767,9.973c0.955,9.592,4.574,12.954,14.043,12.969c12.156,0.019,24.319,0.231,36.467-0.097
		c5.449-0.147,9.048,2.115,11.282,6.585c4.16,8.325,8,16.81,11.949,25.24c1.905,4.066,3.816,8.131,5.611,12.246
		c1.953,4.477,1.225,5.593-3.811,5.612c-14.821,0.056-29.642,0.023-44.463,0.023C219.168,72.621,197.852,72.62,176.537,72.62z
		 M184.799,13.656c0.108-3.919-3.102-7.382-7.061-7.616c-4.192-0.248-7.753,3.04-7.849,7.247c-0.091,4.01,3.005,7.402,6.984,7.649
		C180.945,21.19,184.686,17.754,184.799,13.656z"/>
	<path class="st0" d="M63.6,334.401c21.998,0,43.734,0,65.797,0c0,21.916,0,43.638,0,65.666c-21.986,0-43.733,0-65.797,0
		C63.6,378.134,63.6,356.408,63.6,334.401z M73.484,390.073c15.666,0,30.728,0,45.965,0c0-15.407,0-30.455,0-45.566
		c-15.51,0-30.691,0-45.965,0C73.484,359.852,73.484,374.774,73.484,390.073z"/>
	<path class="st0" d="M63.549,178.193c0-22.168,0-43.77,0-65.651c22.112,0,43.957,0,65.802,0c0.291,0.368,0.581,0.735,0.872,1.103
		c-2.982,3.308-5.964,6.615-8.305,9.212c-16.586,0-32.325,0-48.381,0c0,14.882,0,29.954,0,45.373c15.369,0,30.588,0,45.909,0
		c0.291-5.458-0.417-10.899,1.166-15.561c1.141-3.36,5.334-5.685,8.718-9.014c0,11.879,0,23.047,0,34.539
		C107.39,178.193,85.643,178.193,63.549,178.193z"/>
	<path class="st0" d="M129.476,255.474c0,11.108,0,22.162,0,33.585c-21.962,0-43.685,0-65.797,0c0-21.79,0-43.493,0-65.548
		c21.944,0,43.788,0,65.633,0c0.32,0.375,0.64,0.75,0.959,1.125c-3.093,3.375-6.186,6.75-8.454,9.224c-16.696,0-32.292,0-48.24,0
		c0,14.8,0,29.87,0,45.317c15.246,0,30.46,0,46.322,0C119.012,269.693,118.714,260.439,129.476,255.474z"/>
	<path class="st0" d="M289.705,133.264c0,3.221,0,6.011,0,9.16c-40.193,0-80.207,0-120.663,0c0-2.926,0-5.817,0-9.16
		C209.017,133.264,249.154,133.264,289.705,133.264z"/>
	<path class="st0" d="M168.834,164.778c0-3.163,0-5.957,0-9.129c40.24,0,80.252,0,120.658,0c0,2.878,0,5.776,0,9.129
		C249.534,164.778,209.397,164.778,168.834,164.778z"/>
	<path class="st0" d="M289.685,244.191c0,3.289,0,6.076,0,9.202c-40.216,0-80.232,0-120.666,0c0-2.984,0-5.882,0-9.202
		C209.033,244.191,249.181,244.191,289.685,244.191z"/>
	<path class="st0" d="M289.712,266.503c0,3.354,0,6.147,0,9.304c-40.197,0-80.223,0-120.68,0c0-2.96,0-5.975,0-9.304
		C209.221,266.503,249.251,266.503,289.712,266.503z"/>
	<path class="st0" d="M289.607,377.474c0,3.182,0,6.089,0,9.342c-40.153,0-80.179,0-120.606,0c0-3.035,0-6.051,0-9.342
		C209.273,377.474,249.301,377.474,289.607,377.474z"/>
	<path class="st0" d="M168.87,364.183c0-2.951,0-5.741,0-8.987c40.171,0,80.348,0,120.772,0c0,2.942,0,5.722,0,8.987
		C249.485,364.183,209.312,364.183,168.87,364.183z"/>
	<path class="st0" d="M104.44,272.206c-7.724-7.704-15.141-15.093-22.546-22.495c-2.334-2.333-2.962-4.992-0.477-7.448
		c2.463-2.435,5.205-1.846,7.496,0.461c5.033,5.068,9.977,10.223,15.361,15.756c6.014-6.078,11.584-11.736,17.187-17.361
		c7.867-7.9,15.76-15.775,23.64-23.662c2.403-2.405,5.156-3.529,7.841-0.811c2.631,2.664,1.672,5.397-0.779,7.844
		C136.386,240.24,120.631,256.012,104.44,272.206z"/>
	<path class="st0" d="M104.473,161.311c-7.776-7.763-15.466-15.121-22.666-22.929c-1.248-1.353-1.391-5.244-0.344-6.858
		c1.833-2.823,5.007-2.164,7.315,0.142c5.054,5.05,9.98,10.228,15.224,15.628c1.685-1.559,3.012-2.709,4.252-3.946
		c11.659-11.637,23.303-23.29,34.953-34.937c0.824-0.823,1.637-1.658,2.492-2.449c2.256-2.087,4.813-2.631,7.119-0.411
		c2.461,2.37,2.149,5.121-0.2,7.483C136.667,129.066,120.682,145.065,104.473,161.311z"/>
	<path class="st0" d="M184.799,13.656c-0.113,4.098-3.854,7.534-7.927,7.281c-3.979-0.247-7.075-3.639-6.984-7.649
		c0.096-4.207,3.657-7.495,7.849-7.247C181.697,6.274,184.907,9.737,184.799,13.656z"/>
	<path class="st0" d="M73.484,390.073c0-15.299,0-30.221,0-45.566c15.274,0,30.455,0,45.965,0c0,15.111,0,30.159,0,45.566
		C104.212,390.073,89.15,390.073,73.484,390.073z"/>
</g>
</svg>