<!-- Generator: Adobe Illustrator 19.1.0, SVG Export Plug-In  -->
<svg version="1.1"
	 xmlns="http://www.w3.org/2000/svg" xmlns:xlink="http://www.w3.org/1999/xlink" xmlns:a="http://ns.adobe.com/AdobeSVGViewerExtensions/3.0/"
	 x="0px" y="0px" width="357.792px" height="341.829px" viewBox="0 0 357.792 341.829"
	 style="overflow:scroll;enable-background:new 0 0 357.792 341.829;" xml:space="preserve">
<style type="text/css">
	.st0{fill:#FFFFFF;}
</style>
<defs>
</defs>
<g>
	<path class="st0" d="M0,306.444C0,224.77,0,143.096,0,61.422c1.858-7.153,3.821-14.049,8.994-19.938
		c7.783-8.861,17.16-14.094,28.804-14.736c9.54-0.526,19.123-0.288,28.687-0.356c0.726-0.005,1.453,0.252,2.42,0.433
		c0,8.041-0.071,15.927,0.017,23.81c0.131,11.743,4.715,20.632,15.869,25.819c12.165,5.657,29.405,0.936,35.645-11.196
		c2.364-4.596,3.319-9.361,3.288-14.447c-0.05-7.983-0.013-15.967-0.013-24.143c36.964,0,73.582,0,110.432,0
		c0,8.299,0.022,16.3-0.006,24.3c-0.034,9.745,3.38,17.541,11.75,23.208c9.428,6.383,23.999,6.315,32.809-0.918
		c7.05-5.788,10.745-13.348,10.897-22.499c0.111-6.673,0.023-13.349,0.023-20.024c0-1.311,0-2.623,0-3.921
		c0.78-0.197,1.205-0.4,1.628-0.396c10.23,0.099,20.501-0.306,30.68,0.473c12.014,0.92,21.626,7.083,28.803,16.606
		c5.325,7.064,7.069,15.402,7.065,24.208c-0.041,77.538-0.024,155.075-0.026,232.613c0,1.112-0.006,2.225-0.046,3.337
		c-0.6,16.57-10.93,29.912-26.694,35.42c-3.225,1.127-6.593,1.846-9.895,2.753c-94.582,0-189.163,0-283.745,0
		c-0.967-0.23-1.923-0.539-2.903-0.679c-15.532-2.223-30.253-14.846-33.416-30.219C0.76,309.426,0.359,307.94,0,306.444z
		 M178.931,118.159c-49.174,0-98.348,0.031-147.522-0.071c-3.243-0.007-4.042,0.909-4.037,4.091
		c0.095,59.187,0.066,118.374,0.072,177.561c0.001,10.772,5.155,15.971,15.983,15.973c90.338,0.018,180.676,0.017,271.014,0.001
		c10.84-0.002,15.966-5.166,15.967-15.965c0.006-59.076,0.003-118.151,0.002-177.227c0-4.358-0.005-4.363-4.291-4.363
		C277.057,118.158,227.994,118.159,178.931,118.159z"/>
	<path class="st0" d="M264.383,0c2.798,2.055,6.059,3.717,8.246,6.291c1.681,1.978,2.756,5.086,2.815,7.721
		c0.283,12.555-0.043,25.124,0.191,37.681c0.137,7.333-7.603,14.077-13.775,13.884c-8.155-0.256-13.538-5.159-13.645-13.564
		c-0.161-12.671-0.006-25.345-0.061-38.018C248.122,6.427,252.325,2.262,259.042,0C260.823,0,262.603,0,264.383,0z"/>
	<path class="st0" d="M99.478,0c1.442,0.757,2.973,1.384,4.309,2.297c3.376,2.306,5.689,5.44,5.718,9.637
		c0.096,13.989,0.219,27.984-0.054,41.969c-0.124,6.328-5.412,11.112-11.665,11.551c-7.155,0.502-12.804-3.302-14.28-9.759
		c-0.392-1.713-0.529-3.517-0.536-5.28c-0.047-10.995,0.242-21.999-0.11-32.983C82.59,9.066,85.201,2.936,93.469,0
		C95.472,0,97.475,0,99.478,0z"/>
	<path class="st0" d="M137.885,288.942c1.555-2.54,2.875-4.396,3.891-6.406c3.555-7.037,6.946-14.157,10.509-21.189
		c5.553-10.959,11.184-21.879,16.807-32.802c4.758-9.244,9.508-18.493,14.352-27.692c2.139-4.062,4.501-8.006,7.116-12.631
		c-22.65,0-44.477,0-66.575,0c0-10.191,0-20.015,0-30.116c36.433,0,72.841,0,109.753,0c-0.189,10.848,1.99,21.885-5.243,31.63
		c-1.477,1.99-2.034,4.662-3.013,7.021c-3.276,7.896-6.488,15.82-9.841,23.683c-4.905,11.501-9.9,22.964-14.878,34.433
		c-4.58,10.552-9.144,21.111-13.852,31.605c-0.466,1.039-1.875,2.35-2.859,2.359C168.934,288.987,153.812,288.942,137.885,288.942z"
		/>
</g>
</svg>