<!-- Generator: Adobe Illustrator 19.1.0, SVG Export Plug-In  -->
<svg version="1.1"
	 xmlns="http://www.w3.org/2000/svg" xmlns:xlink="http://www.w3.org/1999/xlink" xmlns:a="http://ns.adobe.com/AdobeSVGViewerExtensions/3.0/"
	 x="0px" y="0px" width="389.003px" height="359.521px" viewBox="0 0 389.003 359.521"
	 style="overflow:scroll;enable-background:new 0 0 389.003 359.521;" xml:space="preserve">
<style type="text/css">
	.st0{fill:#FFFFFF;}
</style>
<defs>
</defs>
<g>
	<path class="st0" d="M0,289.015c0-39.609,0-79.218,0-118.827c0.082-0.334,0.209-0.664,0.238-1.003
		c0.661-7.667,2.637-14.944,6.067-21.866c3.494-7.052,8.28-13.046,14.407-17.901c3.363-2.665,7.076-4.847,11.162-6.393
		c1.13-0.428,2.738-0.472,3.335-2.183c2.138-6.126,4.403-12.209,6.648-18.297c3.123-8.469,6.288-16.923,9.407-25.393
		c3.443-9.351,6.837-18.721,10.285-28.07c3.157-8.561,6.367-17.102,9.537-25.659c2.73-7.369,7.337-13.335,13.712-17.853
		c3.699-2.622,7.919-4.234,12.371-5.173C97.9,0.242,98.641,0.131,99.377,0c63.314,0,126.628,0,189.941,0
		c2.981,0.82,6.06,1.392,8.921,2.517c4.709,1.852,8.632,4.899,12.046,8.68c2.525,2.797,4.783,5.792,6.219,9.209
		c2.675,6.363,5.017,12.868,7.421,19.342c3.153,8.492,6.219,17.016,9.347,25.517c3.132,8.514,6.309,17.011,9.438,25.526
		c3.684,10.026,7.327,20.068,11.035,30.086c0.193,0.522,0.753,1.03,1.271,1.29c2.437,1.222,4.942,2.311,7.381,3.53
		c4.863,2.431,8.814,5.995,12.438,9.995c3.615,3.99,6.477,8.465,8.711,13.324c3.768,8.195,5.459,16.855,5.457,25.865
		C388.995,212.36,389,249.838,389,287.316c0,0.536,0,1.072,0,1.742c-10.52,0-20.827,0-31.279,0c0,0.73,0,1.326,0,1.921
		c0,11.041,0.024,22.082-0.008,33.123c-0.026,9.006-2.548,17.154-8.294,24.239c-3.659,4.51-8.05,7.896-13.632,9.618
		c-1.895,0.585-3.828,1.045-5.744,1.562c-1.925,0-3.849,0-5.774,0c-0.235-0.082-0.464-0.207-0.705-0.239
		c-3.771-0.501-7.19-1.897-10.48-3.792c-4.227-2.435-7.462-5.812-10.163-9.803c-4.042-5.972-6.166-12.596-6.266-19.75
		c-0.163-11.696-0.062-23.396-0.072-35.094c-0.001-0.583,0-1.167,0-1.697c-68.27,0-136.3,0-204.424,0c0,0.727,0.001,1.329,0,1.931
		c-0.014,11.496,0.067,22.992-0.072,34.487c-0.102,8.472-2.809,16.089-8.177,22.73c-3.676,4.547-8.093,7.988-13.752,9.687
		c-1.8,0.54-3.616,1.029-5.424,1.541c-2.026,0-4.052,0-6.078,0c-1.816-0.504-3.632-1.005-5.447-1.511
		c-4.872-1.357-8.792-4.191-12.234-7.806c-2.448-2.573-4.416-5.468-5.982-8.635c-2.999-6.066-4.005-12.545-3.979-19.253
		c0.042-10.533,0.011-21.066,0.011-31.599c0-0.535,0-1.069,0-1.702C20.544,289.015,10.272,289.015,0,289.015z M323.098,119.735
		c-1.233-3.407-2.419-6.712-3.624-10.01c-3.112-8.517-6.245-17.027-9.346-25.548c-3.084-8.472-6.126-16.959-9.211-25.431
		c-2.827-7.765-5.694-15.515-8.529-23.277c-1.549-4.242-4.928-6.94-9.516-6.936c-58.998,0.051-117.996,0.044-176.993,0.013
		c-4.451-0.002-7.434,2.157-9.046,6.033c-2.066,4.968-3.778,10.083-5.624,15.142c-2.504,6.865-4.978,13.741-7.487,20.604
		c-2.229,6.097-4.498,12.179-6.731,18.274c-2.548,6.956-5.077,13.919-7.611,20.879c-1.236,3.395-2.467,6.792-3.725,10.257
		C151.504,119.735,237.225,119.735,323.098,119.735z M325.875,217.049c6.674-0.221,12.158-2.792,16.864-7.364
		c3.215-3.124,5.544-6.814,6.946-10.983c3.088-9.181,2.593-18.165-2.105-26.79c-3.607-6.622-9.027-11.06-16.262-13.017
		c-5.901-1.596-11.59-0.412-16.925,2.44c-1.225,0.655-2.4,1.467-3.445,2.382c-4.36,3.812-7.524,8.438-9.222,14.013
		c-1.981,6.504-2.044,13.011-0.033,19.528c1.497,4.851,4.008,9.038,7.63,12.642c2.61,2.597,5.663,4.46,9.012,5.696
		C320.705,216.469,323.352,216.591,325.875,217.049z M86.432,186.283c-0.095-3.265-0.708-8.421-3.993-14.402
		c-3.612-6.576-8.961-11.013-16.145-12.98c-5.907-1.617-11.595-0.408-16.93,2.453c-1.225,0.657-2.399,1.471-3.446,2.385
		c-4.363,3.813-7.53,8.439-9.229,14.018c-1.966,6.457-2.045,12.926-0.063,19.391c1.502,4.899,3.965,9.205,7.737,12.755
		c4.182,3.937,8.945,6.47,14.78,6.817c5.732,0.341,11.019-0.86,15.474-4.587c2.25-1.882,4.518-3.896,6.217-6.254
		C84.705,200.505,86.414,194.324,86.432,186.283z"/>
	<path class="st0" d="M325.875,217.049c-2.523-0.458-5.17-0.581-7.54-1.455c-3.349-1.236-6.402-3.099-9.012-5.696
		c-3.622-3.604-6.133-7.791-7.63-12.642c-2.011-6.517-1.949-13.024,0.033-19.528c1.698-5.574,4.863-10.201,9.222-14.013
		c1.046-0.914,2.221-1.727,3.445-2.382c5.336-2.851,11.024-4.036,16.925-2.44c7.235,1.957,12.655,6.395,16.262,13.017
		c4.697,8.625,5.192,17.608,2.105,26.79c-1.402,4.17-3.731,7.859-6.946,10.983C338.034,214.258,332.549,216.829,325.875,217.049z"/>
	<path class="st0" d="M86.432,186.283c-0.018,8.041-1.727,14.222-5.599,19.598c-1.699,2.358-3.967,4.372-6.217,6.254
		c-4.455,3.727-9.742,4.928-15.474,4.587c-5.836-0.348-10.599-2.881-14.78-6.817c-3.771-3.551-6.235-7.856-7.737-12.755
		c-1.982-6.465-1.903-12.934,0.063-19.391c1.699-5.579,4.866-10.205,9.229-14.018c1.047-0.915,2.221-1.729,3.446-2.385
		c5.335-2.86,11.023-4.07,16.93-2.453c7.184,1.967,12.534,6.404,16.145,12.98C85.724,177.862,86.337,183.018,86.432,186.283z"/>
</g>
</svg>