<!-- Generator: Adobe Illustrator 19.1.0, SVG Export Plug-In  -->
<svg version="1.1"
	 xmlns="http://www.w3.org/2000/svg" xmlns:xlink="http://www.w3.org/1999/xlink" xmlns:a="http://ns.adobe.com/AdobeSVGViewerExtensions/3.0/"
	 x="0px" y="0px" width="217.29px" height="217.58px" viewBox="0 0 217.29 217.58"
	 style="overflow:scroll;enable-background:new 0 0 217.29 217.58;" xml:space="preserve">
<style type="text/css">
	.st0{fill:#FFFFFF;}
</style>
<defs>
</defs>
<path class="st0" d="M106.294,0c30.437,0.547,54.473,9.653,75.28,27.452c3.59,3.071,3.888,4.876,0.289,8.42
	c-23.151,22.795-46.088,45.808-68.948,68.896c-2.703,2.73-4.687,3.156-8.051,1.218C88.131,96.344,71.23,86.994,54.463,77.409
	c-2.998-1.714-3.887-1.932-4.28,2.175c-0.847,8.86,1.521,15.738,7.821,22.475c16.26,17.389,31.079,36.083,47.171,53.657
	c3.308,3.613,4.663,2.859,7.378-0.271c28.488-32.833,57.09-65.567,85.688-98.304c4.201-4.809,4.364-4.798,7.188,0.841
	c30.848,61.591,0.19,143.775-76.529,157.704c-56.91,10.332-110.338-22.445-124.948-77.969
	C-13.096,72.924,26.832,13.468,88.555,1.925C95.395,0.646,102.43,0.403,106.294,0z"/>
</svg>