<!-- Generator: Adobe Illustrator 19.1.0, SVG Export Plug-In  -->
<svg version="1.1"
	 xmlns="http://www.w3.org/2000/svg" xmlns:xlink="http://www.w3.org/1999/xlink" xmlns:a="http://ns.adobe.com/AdobeSVGViewerExtensions/3.0/"
	 x="0px" y="0px" width="266.654px" height="414.691px" viewBox="0 0 266.654 414.691"
	 style="overflow:scroll;enable-background:new 0 0 266.654 414.691;" xml:space="preserve">
<style type="text/css">
	.st0{fill:#FFFFFF;}
</style>
<defs>
</defs>
<g>
	<path class="st0" d="M0,112.955c0-3.671,0-7.342,0-11.012c0.106-0.227,0.261-0.444,0.31-0.683c1.164-5.62,2.315-11.242,3.47-16.864
		c2.185-10.631,4.497-21.224,8.141-31.485c3.479-9.798,8.66-18.516,16.043-25.859c4.709-4.683,10.405-8.042,16.126-11.26
		c9.978-5.614,21.112-8.036,32.095-10.572c11.511-2.657,23.271-4.035,35.097-4.638c2.344-0.119,4.681-0.383,7.021-0.581
		c5.768,0,11.537,0,17.305,0c0.507,0.099,1.01,0.251,1.522,0.29c4.175,0.317,8.361,0.516,12.525,0.936
		c9.284,0.936,18.451,2.41,27.463,5.017c11.415,3.302,22.567,7.106,32.78,13.324c1.549,0.943,2.91,1.962,3.944,3.477
		c1.766,2.587,3.619,5.116,5.468,7.645c1.763,2.41,3.545,4.805,5.367,7.17c0.671,0.871,0.842,1.636,0.348,2.699
		c-1.21,2.603-2.346,5.246-3.367,7.928c-0.278,0.73-0.262,1.733-0.002,2.478c1.082,3.103,2.484,6.101,3.45,9.236
		c3.562,11.559,5.804,23.397,7.138,35.412c0.18,1.621,0.633,3.024,1.754,4.374c1.166,1.405,2.105,3.172,2.593,4.934
		c1.223,4.415,1.962,8.966,3.216,13.37c1.482,5.205,0.078,9.566-2.859,13.864c-1.806,2.643-3.261,5.596-4.434,8.582
		c-1.365,3.477-1.686,7.243,0.125,10.657c2.814,5.305,5.943,10.443,8.938,15.653c0.704,1.224,1.517,2.399,2.089,3.682
		c2.549,5.717,5.027,11.466,7.534,17.202c0.669,1.531,1.634,2.999,1.967,4.599c0.755,3.623,2.895,6.187,5.623,8.434
		c4.271,3.518,6.982,7.812,7.699,13.489c0.974,7.705-2.488,10.795-7.913,11.938c-5.108,1.076-10.294,1.782-15.443,2.67
		c-3.74,0.645-7.474,1.321-11.156,1.974c-1.324,9.6-1.712,19.008,0.909,28.333c-2.375,0.974-4.565,1.872-6.924,2.84
		c1.813,1.621,3.5,3.033,5.055,4.578c0.476,0.473,0.892,1.344,0.82,1.974c-0.505,4.407-0.804,8.879-1.829,13.173
		c-1.342,5.622-3.306,11.094-4.963,16.642c-0.233,0.78-0.438,1.657-0.321,2.439c1.496,10.025,3.072,20.037,4.572,30.061
		c0.212,1.42,0.458,2.962,0.129,4.31c-0.914,3.737-3.187,6.682-6.248,8.958c-1.29,0.959-2.8,1.619-4.183,2.458
		c-3.242,1.966-6.887,2.535-10.49,2.202c-4.855-0.45-9.653-1.517-14.48-2.29c-3.25-0.52-6.525-0.899-9.759-1.502
		c-5.734-1.069-11.117-0.783-16.111,2.782c-2.927,2.089-4.914,4.624-5.792,8.072c-1.594,6.259-1.924,12.611-1.323,19.017
		c0.204,2.174,0.051,4.017-1.635,5.794c-5.309,5.594-8.052,12.58-9.55,19.965c-0.917,4.522-0.928,9.228-1.345,13.851
		c-0.21,0-0.42,0-0.629,0c-0.78-0.828-1.516-1.702-2.346-2.475c-4.056-3.775-8.137-7.522-12.21-11.279
		c-3.958-3.651-7.917-7.302-11.875-10.954c-3.959-3.653-7.918-7.305-11.873-10.961c-3.8-3.513-7.592-7.035-11.395-10.545
		c-4.148-3.829-8.309-7.643-12.455-11.475c-3.799-3.511-7.578-7.045-11.378-10.555c-4.222-3.901-8.463-7.782-12.687-11.68
		c-3.763-3.472-7.511-6.962-11.274-10.434c-4.419-4.076-8.834-8.156-13.275-12.207c-4.009-3.656-8.052-7.276-12.038-10.874
		c4.4-7.561,8.171-15.051,11.209-22.91c3.971-10.272,6.657-20.796,6.514-31.892c-0.097-7.524-1.047-14.759-5.055-21.491
		c-4.238-7.118-8.063-14.508-11.646-21.982c-3.493-7.285-6.582-14.773-9.613-22.266c-4.368-10.799-7.828-21.905-10.671-33.204
		c-2.451-9.74-4.362-19.571-5.235-29.589C0.43,116.258,0.194,114.608,0,112.955z"/>
</g>
</svg>