<!-- Generator: Adobe Illustrator 19.1.0, SVG Export Plug-In  -->
<svg version="1.1"
	 xmlns="http://www.w3.org/2000/svg" xmlns:xlink="http://www.w3.org/1999/xlink" xmlns:a="http://ns.adobe.com/AdobeSVGViewerExtensions/3.0/"
	 x="0px" y="0px" width="576px" height="792px" viewBox="0 0 576 792" style="overflow:scroll;enable-background:new 0 0 576 792;"
	 xml:space="preserve">
<style type="text/css">
	.st0{fill:#FFFFFF;}
</style>
<defs>
</defs>
<g>
	<g>
		<rect x="108" y="432" class="st0" width="360" height="36"/>
		<rect x="108" y="540" class="st0" width="360" height="36"/>
		<rect x="108" y="108" class="st0" width="216" height="36"/>
		<rect x="108" y="648" class="st0" width="360" height="36"/>
		<rect x="108" y="324" class="st0" width="360" height="36"/>
		<path class="st0" d="M558.54,792c0,0,17.46,0,17.46-17.604V158.4L418.896,0H17.46C17.46,0,0,0,0,17.604V774.36
			C0,792,17.46,792,17.46,792H558.54z M36,36h360v108c0,36,36,36,36,36h108v576H36V36z"/>
		<rect x="108" y="216" class="st0" width="360" height="36"/>
	</g>
</g>
</svg>